<?xml version="1.0" encoding="UTF-8" standalone="no"?>
<!-- Created with Inkscape (http://www.inkscape.org/) -->

<svg
   xmlns:dc="http://purl.org/dc/elements/1.1/"
   xmlns:cc="http://creativecommons.org/ns#"
   xmlns:rdf="http://www.w3.org/1999/02/22-rdf-syntax-ns#"
   xmlns:svg="http://www.w3.org/2000/svg"
   xmlns="http://www.w3.org/2000/svg"
   xmlns:sodipodi="http://sodipodi.sourceforge.net/DTD/sodipodi-0.dtd"
   xmlns:inkscape="http://www.inkscape.org/namespaces/inkscape"
   width="96"
   height="96"
   id="svg2985"
   version="1.1"
   inkscape:version="0.48.4 r9939"
   enable-background="new"
   inkscape:export-filename="/home/jobe/Development/Sailfish-devel/ownKeepass/qml/common/images/covericons/copy.png"
   inkscape:export-xdpi="90"
   inkscape:export-ydpi="90"
   sodipodi:docname="copy.svg">
  <defs
     id="defs2987" />
  <sodipodi:namedview
     id="base"
     pagecolor="#787878"
     bordercolor="#666666"
     borderopacity="1.0"
     inkscape:pageopacity="0"
     inkscape:pageshadow="2"
     inkscape:zoom="6.9604261"
     inkscape:cx="47.45984"
     inkscape:cy="48.747082"
     inkscape:current-layer="layer1"
     showgrid="true"
     inkscape:grid-bbox="true"
     inkscape:document-units="px"
     inkscape:snap-grids="true"
     inkscape:showpageshadow="true"
     showborder="true"
     borderlayer="true"
     inkscape:snap-smooth-nodes="false"
     inkscape:object-nodes="true"
     inkscape:snap-bbox="true"
     inkscape:bbox-nodes="true"
     inkscape:snap-global="true"
     inkscape:snap-nodes="true"
     inkscape:object-paths="false"
     inkscape:window-width="1440"
     inkscape:window-height="876"
     inkscape:window-x="0"
     inkscape:window-y="24"
     inkscape:window-maximized="1" />
  <metadata
     id="metadata2990">
    <rdf:RDF>
      <cc:Work
         rdf:about="">
        <dc:format>image/svg+xml</dc:format>
        <dc:type
           rdf:resource="http://purl.org/dc/dcmitype/StillImage" />
        <dc:title></dc:title>
      </cc:Work>
    </rdf:RDF>
  </metadata>
  <g
     inkscape:groupmode="layer"
     id="layer3"
     inkscape:label="Background"
     style="display:none">
    <rect
       style="fill:#4995a9;fill-opacity:1"
       id="rect3884"
       width="96.715919"
       height="96.715919"
       x="-0.16420364"
       y="-0.38752043" />
  </g>
  <g
     id="layer1"
     inkscape:label="Layer 1"
     inkscape:groupmode="layer"
     transform="translate(0,48)"
     style="display:inline;opacity:1">
    <rect
       style="fill:#ffffff;display:none"
       id="rect3772"
       width="64.367813"
       height="46.305416"
       x="15.763547"
       y="-7.336617" />
    <path
       inkscape:connector-curvature="0"
       style="fill:#00384f;fill-opacity:0.38938054;stroke:#00384f;stroke-opacity:0.56470588;display:inline"
       d="m 1.0503224,-42.975242 0,73.34375 38.5542446,0 0,-35.508919 19.399711,0 0,-11.133364 C 56.115331,-28.791274 34.574234,-42.804735 27.590844,-42.913218 l -26.5405216,-0.06202 z"
       id="rect4152-4" />
    <path
       inkscape:connector-curvature="0"
       style="fill:#ffffff;fill-opacity:0.71976402;stroke:none"
       d="m 0.90625,-42.943992 0,73.3125 40.03125,0 0,-8.9375 -29.15625,0 c -2.055751,0 -3.6875,-1.34641 -3.6875,-3 l 0,-0.65625 c 0,-1.653589 1.631749,-3 3.6875,-3 l 29.15625,0 0,-6.625 -29.15625,0 c -2.055751,0 -3.6875,-1.3464099 -3.6875,-2.9999999 l 0,-0.65625 c 0,-1.65359 1.631749,-3 3.6875,-3 l 29.15625,0 0,-6.34375 18.625,0 0,-10.6875001 c 0.382829,-0.912512 -5.875307,-6.120404 -22.90625,-3.5625 -0.279584,-4.848728 0.130447,-18.795071 -8.21875,-23.8125 l -27.53125,-0.03125 z m 10.875,31.21875 37.3125,0 c 2.05575,0 3.6875,1.31516 3.6875,2.9687501 l 0,0.6875 c 0,1.65359 -1.63175,2.96875 -3.6875,2.96875 l -37.3125,0 c -2.055751,0 -3.6875,-1.31516 -3.6875,-2.96875 l 0,-0.6875 c 0,-1.6535901 1.631749,-2.9687501 3.6875,-2.9687501 z"
       id="rect4152" />
    <path
       style="fill:#00384f;fill-opacity:0.56470587999999999;stroke:#00384f;display:inline;stroke-opacity:0.56470591"
       d="m 36.427318,-32.057373 0,73.325875 58.672769,0 -0.02922,-46.6352309 C 92.147325,-17.878738 70.362137,-31.891816 63.295115,-32.000251 z"
       id="rect4152-4-4"
       inkscape:connector-curvature="0"
       sodipodi:nodetypes="cccccc" />
    <path
       inkscape:connector-curvature="0"
       style="fill:#ffffff;fill-opacity:1;stroke:none"
       d="m 36.427318,-32.057371 0,73.325873 58.656362,0 0,-45.891266 C 95.466509,-5.5352761 89.188945,-10.75754 72.158002,-8.1996359 71.878418,-13.048364 72.309093,-27.004174 63.959896,-32.021603 l -27.532578,-0.03577 z m 10.882442,31.22609119 37.290501,0 c 2.05575,0 3.70003,1.31521407 3.70003,2.96880361 l 0,0.6796057 c 0,1.6535896 -1.64428,2.9688037 -3.70003,2.9688037 l -37.290501,0 c -2.055751,0 -3.70003,-1.3152141 -3.70003,-2.9688037 l 0,-0.6796057 c 0,-1.65358954 1.644279,-2.96880361 3.70003,-2.96880361 z m 0,13.23442581 37.290501,0 c 2.05575,0 3.70003,1.350983 3.70003,3.004572 l 0,0.643837 c 0,1.65359 -1.64428,3.004573 -3.70003,3.004573 l -37.290501,0 c -2.055751,0 -3.70003,-1.350983 -3.70003,-3.004573 l 0,-0.643837 c 0,-1.653589 1.644279,-3.004572 3.70003,-3.004572 z m 0,13.270195 37.290501,0 c 2.05575,0 3.70003,1.350983 3.70003,3.004572 l 0,0.643837 c 0,1.65359 -1.64428,3.004572 -3.70003,3.004572 l -37.290501,0 c -2.055751,0 -3.70003,-1.350982 -3.70003,-3.004572 l 0,-0.643837 c 0,-1.653589 1.644279,-3.004572 3.70003,-3.004572 z"
       id="rect4152-8" />
  </g>
</svg>
