<?xml version="1.0" encoding="UTF-8" standalone="no"?>
<!-- Created with Inkscape (http://www.inkscape.org/) -->

<svg
   xmlns:dc="http://purl.org/dc/elements/1.1/"
   xmlns:cc="http://creativecommons.org/ns#"
   xmlns:rdf="http://www.w3.org/1999/02/22-rdf-syntax-ns#"
   xmlns:svg="http://www.w3.org/2000/svg"
   xmlns="http://www.w3.org/2000/svg"
   xmlns:sodipodi="http://sodipodi.sourceforge.net/DTD/sodipodi-0.dtd"
   xmlns:inkscape="http://www.inkscape.org/namespaces/inkscape"
   width="64"
   height="64"
   id="svg2985"
   version="1.1"
   inkscape:version="0.48.4 r9939"
   inkscape:export-filename="/home/jobe/Development/SailfishOS/ownkeepass/common/images/covericons/locker.png"
   inkscape:export-xdpi="135"
   inkscape:export-ydpi="135"
   sodipodi:docname="locker.svg"
   style="enable-background:new">
  <defs
     id="defs2987" />
  <sodipodi:namedview
     id="base"
     pagecolor="#787878"
     bordercolor="#666666"
     borderopacity="1.0"
     inkscape:pageopacity="0"
     inkscape:pageshadow="2"
     inkscape:zoom="6.71"
     inkscape:cx="36.434146"
     inkscape:cy="32.269075"
     inkscape:current-layer="layer3"
     showgrid="true"
     inkscape:grid-bbox="true"
     inkscape:document-units="px"
     inkscape:snap-grids="false"
     inkscape:showpageshadow="true"
     showborder="true"
     borderlayer="true"
     inkscape:snap-smooth-nodes="false"
     inkscape:object-nodes="true"
     inkscape:snap-bbox="true"
     inkscape:bbox-nodes="true"
     inkscape:snap-global="true"
     inkscape:snap-nodes="true"
     inkscape:object-paths="false"
     inkscape:window-width="1000"
     inkscape:window-height="615"
     inkscape:window-x="214"
     inkscape:window-y="228"
     inkscape:window-maximized="0"
     inkscape:snap-to-guides="true"
     inkscape:snap-page="false" />
  <metadata
     id="metadata2990">
    <rdf:RDF>
      <cc:Work
         rdf:about="">
        <dc:format>image/svg+xml</dc:format>
        <dc:type
           rdf:resource="http://purl.org/dc/dcmitype/StillImage" />
        <dc:title />
      </cc:Work>
    </rdf:RDF>
  </metadata>
  <g
     inkscape:groupmode="layer"
     id="layer3"
     inkscape:label="Background"
     style="display:inline"
     transform="translate(0,-32)">
    <rect
       style="fill:#29507f;fill-opacity:1"
       id="rect3884"
       width="64.1642"
       height="64.3284"
       x="-0.16420364"
       y="32" />
  </g>
  <g
     inkscape:groupmode="layer"
     id="layer2"
     inkscape:label="Durchpausen"
     style="display:none" />
  <g
     id="layer1"
     inkscape:label="Layer 1"
     inkscape:groupmode="layer"
     transform="translate(0,16)"
     style="display:inline">
    <rect
       style="fill:#ffffff;display:none"
       id="rect3772"
       width="64.367813"
       height="46.305416"
       x="15.763547"
       y="-7.336617" />
    <path
       style="fill:none;stroke:#ffffff;stroke-width:7.50000000000000000;stroke-linecap:butt;stroke-linejoin:miter;stroke-miterlimit:4;stroke-opacity:0.39607844;stroke-dasharray:none;display:inline;enable-background:new;fill-opacity:1"
       d="m 12.17575,15.450159 c -1.024265,-17.0787505 6.626535,-26.927738 19.374917,-27.055358 12.748382,-0.12762 20.553162,9.7398704 20.38405,26.779892"
       id="path3974"
       inkscape:connector-curvature="0"
       sodipodi:nodetypes="czc" />
    <rect
       style="opacity:0;fill:#b9b9b9;fill-opacity:0.7254902;stroke:none"
       id="rect4022"
       width="21.282457"
       height="29.419868"
       x="21.908413"
       y="31.728559"
       transform="translate(0,-16)"
       ry="4.8130126" />
    <path
       style="fill:#ffffff;fill-opacity:1;fill-rule:evenodd;stroke:none;display:inline;enable-background:new"
       d="m 7.5,27.8125 c -2.666409,0 -4.8125,2.146091 -4.8125,4.8125 l 0,26.28125 c 0,2.666409 2.146091,4.8125 4.8125,4.8125 l 48.5,0 c 2.666409,0 4.8125,-2.146091 4.8125,-4.8125 l 0,-26.28125 c 0,-2.666409 -2.146091,-4.8125 -4.8125,-4.8125 l -48.5,0 z m 23.9375,4.875 c 1.445952,-0.09944 2.958712,0.198968 4.3125,0.90625 3.610103,1.886085 4.843873,6.073884 2.78125,9.375 -0.648681,1.038178 -1.562163,1.892013 -2.6875,2.5 l 0,9.4375 c 0.02418,5.791515 -7.99293,5.751573 -7.96875,0 0,0 -0.02305,-6.598471 -0.03125,-9.625 -3.269959,-1.987331 -4.351681,-5.961431 -2.375,-9.125 1.28914,-2.063197 3.55883,-3.303016 5.96875,-3.46875 z"
       transform="translate(0,-16)"
       id="rect3917"
       inkscape:connector-curvature="0" />
  </g>
</svg>
