<?xml version="1.0" encoding="UTF-8" standalone="no"?>
<!-- Created with Inkscape (http://www.inkscape.org/) -->

<svg
   xmlns:dc="http://purl.org/dc/elements/1.1/"
   xmlns:cc="http://creativecommons.org/ns#"
   xmlns:rdf="http://www.w3.org/1999/02/22-rdf-syntax-ns#"
   xmlns:svg="http://www.w3.org/2000/svg"
   xmlns="http://www.w3.org/2000/svg"
   xmlns:sodipodi="http://sodipodi.sourceforge.net/DTD/sodipodi-0.dtd"
   xmlns:inkscape="http://www.inkscape.org/namespaces/inkscape"
   width="96"
   height="96"
   id="svg2985"
   version="1.1"
   inkscape:version="0.48.4 r9939"
   enable-background="new"
   inkscape:export-filename="/home/jobe/Development/Sailfish-devel/ownKeepass/qml/common/images/covericons/locker.png"
   inkscape:export-xdpi="90"
   inkscape:export-ydpi="90"
   sodipodi:docname="copy.svg">
  <defs
     id="defs2987" />
  <sodipodi:namedview
     id="base"
     pagecolor="#787878"
     bordercolor="#666666"
     borderopacity="1.0"
     inkscape:pageopacity="0"
     inkscape:pageshadow="2"
     inkscape:zoom="8"
     inkscape:cx="46.44789"
     inkscape:cy="51.895821"
     inkscape:current-layer="layer3"
     showgrid="true"
     inkscape:grid-bbox="true"
     inkscape:document-units="px"
     inkscape:snap-grids="true"
     inkscape:showpageshadow="true"
     showborder="true"
     borderlayer="true"
     inkscape:snap-smooth-nodes="false"
     inkscape:object-nodes="true"
     inkscape:snap-bbox="true"
     inkscape:bbox-nodes="true"
     inkscape:snap-global="true"
     inkscape:snap-nodes="true"
     inkscape:object-paths="false"
     inkscape:window-width="1440"
     inkscape:window-height="876"
     inkscape:window-x="0"
     inkscape:window-y="24"
     inkscape:window-maximized="1" />
  <metadata
     id="metadata2990">
    <rdf:RDF>
      <cc:Work
         rdf:about="">
        <dc:format>image/svg+xml</dc:format>
        <dc:type
           rdf:resource="http://purl.org/dc/dcmitype/StillImage" />
        <dc:title></dc:title>
      </cc:Work>
    </rdf:RDF>
  </metadata>
  <g
     inkscape:groupmode="layer"
     id="layer3"
     inkscape:label="Background"
     style="display:inline;opacity:1">
    <rect
       style="fill:#008080;fill-opacity:1"
       id="rect3884"
       width="96.715919"
       height="96.715919"
       x="-0.16420364"
       y="-0.38752043" />
  </g>
  <g
     id="layer1"
     inkscape:label="Layer 1"
     inkscape:groupmode="layer"
     transform="translate(0,48)"
     style="display:inline;opacity:1">
    <rect
       style="fill:#ffffff;display:none"
       id="rect3772"
       width="64.367813"
       height="46.305416"
       x="15.763547"
       y="-7.336617" />
    <path
       style="fill:#00384f;fill-opacity:0.83775814;stroke:none;display:inline"
       d="m 4.4375,-36.238388 0,64.582138 50.92955,0 -0.02536,-41.074217 C 52.803972,-23.750483 33.89384,-36.092573 27.759474,-36.188078 z"
       id="rect4152-4"
       inkscape:connector-curvature="0"
       sodipodi:nodetypes="cccccc" />
    <path
       style="fill:#ffffff;fill-opacity:1;stroke:none"
       d="M 4.6875 12.03125 L 4.6875 76.09375 L 55.21875 76.09375 L 55.21875 36 C 55.54855 35.202767 50.140557 30.64024 35.46875 32.875 C 35.227894 28.638819 35.598912 16.446069 28.40625 12.0625 L 4.6875 12.03125 z M 14.0625 39.3125 L 46.1875 39.3125 C 47.958487 39.3125 49.375 40.461561 49.375 41.90625 L 49.375 42.5 C 49.375 43.944689 47.958487 45.09375 46.1875 45.09375 L 14.0625 45.09375 C 12.291513 45.09375 10.875 43.944689 10.875 42.5 L 10.875 41.90625 C 10.875 40.461561 12.291513 39.3125 14.0625 39.3125 z M 14.0625 50.875 L 46.1875 50.875 C 47.958487 50.875 49.375 52.055311 49.375 53.5 L 49.375 54.0625 C 49.375 55.507189 47.958487 56.6875 46.1875 56.6875 L 14.0625 56.6875 C 12.291513 56.6875 10.875 55.507189 10.875 54.0625 L 10.875 53.5 C 10.875 52.055311 12.291513 50.875 14.0625 50.875 z M 14.0625 62.46875 L 46.1875 62.46875 C 47.958487 62.46875 49.375 63.649061 49.375 65.09375 L 49.375 65.65625 C 49.375 67.100939 47.958487 68.28125 46.1875 68.28125 L 14.0625 68.28125 C 12.291513 68.28125 10.875 67.100939 10.875 65.65625 L 10.875 65.09375 C 10.875 63.649061 12.291513 62.46875 14.0625 62.46875 z "
       transform="translate(0,-48)"
       id="rect4152" />
  </g>
</svg>
