<?xml version="1.0" encoding="UTF-8" standalone="no"?>
<!-- Created with Inkscape (http://www.inkscape.org/) -->

<svg
   xmlns:dc="http://purl.org/dc/elements/1.1/"
   xmlns:cc="http://creativecommons.org/ns#"
   xmlns:rdf="http://www.w3.org/1999/02/22-rdf-syntax-ns#"
   xmlns:svg="http://www.w3.org/2000/svg"
   xmlns="http://www.w3.org/2000/svg"
   xmlns:sodipodi="http://sodipodi.sourceforge.net/DTD/sodipodi-0.dtd"
   xmlns:inkscape="http://www.inkscape.org/namespaces/inkscape"
   width="96"
   height="96"
   id="svg2985"
   version="1.1"
   inkscape:version="0.48.4 r9939"
   enable-background="new"
   inkscape:export-filename="/home/jobe/Development/Sailfish-devel/ownKeepass/qml/common/images/covericons/locker.png"
   inkscape:export-xdpi="90"
   inkscape:export-ydpi="90"
   sodipodi:docname="locker.svg">
  <defs
     id="defs2987" />
  <sodipodi:namedview
     id="base"
     pagecolor="#787878"
     bordercolor="#666666"
     borderopacity="1.0"
     inkscape:pageopacity="0"
     inkscape:pageshadow="2"
     inkscape:zoom="6.9884171"
     inkscape:cx="56.82719"
     inkscape:cy="46.630527"
     inkscape:current-layer="layer1"
     showgrid="true"
     inkscape:grid-bbox="true"
     inkscape:document-units="px"
     inkscape:snap-grids="true"
     inkscape:showpageshadow="true"
     showborder="true"
     borderlayer="true"
     inkscape:snap-smooth-nodes="false"
     inkscape:object-nodes="true"
     inkscape:snap-bbox="true"
     inkscape:bbox-nodes="true"
     inkscape:snap-global="true"
     inkscape:snap-nodes="true"
     inkscape:object-paths="false"
     inkscape:window-width="1440"
     inkscape:window-height="876"
     inkscape:window-x="0"
     inkscape:window-y="24"
     inkscape:window-maximized="1" />
  <metadata
     id="metadata2990">
    <rdf:RDF>
      <cc:Work
         rdf:about="">
        <dc:format>image/svg+xml</dc:format>
        <dc:type
           rdf:resource="http://purl.org/dc/dcmitype/StillImage" />
        <dc:title></dc:title>
      </cc:Work>
    </rdf:RDF>
  </metadata>
  <g
     inkscape:groupmode="layer"
     id="layer3"
     inkscape:label="Background"
     style="display:inline">
    <rect
       style="fill:#008080;fill-opacity:1"
       id="rect3884"
       width="96.715919"
       height="96.715919"
       x="-0.16420364"
       y="-0.38752043" />
  </g>
  <g
     id="layer1"
     inkscape:label="Layer 1"
     inkscape:groupmode="layer"
     transform="translate(0,48)"
     style="display:inline;">
    <rect
       style="fill:#ffffff;display:none"
       id="rect3772"
       width="64.367813"
       height="46.305416"
       x="15.763547"
       y="-7.336617" />
    <g
       id="g4101"
       transform="matrix(1.2058681,0,0,1.17364,-10.679992,-4.1154332)">
      <rect
         transform="translate(0,-48)"
         y="48.9221"
         x="34.628727"
         height="37.204418"
         width="28.189503"
         id="rect4080"
         style="opacity:0.2921811;fill:#000000;fill-opacity:1;stroke:none" />
      <path
         id="rect3770"
         transform="translate(0,-48)"
         d="m 49.5,42.375 c -11.471646,0.01259 -23.196143,0.695369 -35.15625,2 l 0,44.875 c 33.960876,5.450065 52.515901,2.417978 68.8125,0 l 0,-44.875 C 72.173426,43.020012 60.971646,42.362411 49.5,42.375 z M 49,49.65625 c 5.758634,0 10.40625,4.319803 10.40625,9.625 0,3.20235 -1.697522,6.035863 -4.3125,7.78125 l 2.1875,17.09375 -16.25,0 1.90625,-17.0625 c -2.643893,-1.742428 -4.375,-4.58934 -4.375,-7.8125 0,-5.305197 4.678866,-9.625 10.4375,-9.625 z"
         style="fill:#ffffff;fill-opacity:1;stroke:none"
         inkscape:connector-curvature="0" />
      <path
         id="path3922"
         transform="translate(0,-48)"
         d="m 49.34375,10.71875 c -16.173176,0 -29.25,14.94728 -29.25,33.40625 0,2.018217 0.137172,3.986584 0.4375,5.90625 l 8.75,0 c -0.211525,-1.528441 -0.3125,-3.080592 -0.3125,-4.6875 0,-14.697063 9.202763,-26.59375 20.59375,-26.59375 11.390988,0 20.625,11.896687 20.625,26.59375 0,1.608075 -0.131925,3.158013 -0.34375,4.6875 l 8.3125,0 C 78.457005,48.110272 78.625,46.144683 78.625,44.125 78.625,25.66603 65.516928,10.71875 49.34375,10.71875 z"
         style="fill:#ffffff;fill-opacity:1;stroke:none"
         inkscape:connector-curvature="0" />
    </g>
  </g>
</svg>
