<?xml version="1.0" encoding="UTF-8" standalone="no"?>
<!-- Created with Inkscape (http://www.inkscape.org/) -->

<svg
   xmlns:dc="http://purl.org/dc/elements/1.1/"
   xmlns:cc="http://creativecommons.org/ns#"
   xmlns:rdf="http://www.w3.org/1999/02/22-rdf-syntax-ns#"
   xmlns:svg="http://www.w3.org/2000/svg"
   xmlns="http://www.w3.org/2000/svg"
   xmlns:xlink="http://www.w3.org/1999/xlink"
   xmlns:sodipodi="http://sodipodi.sourceforge.net/DTD/sodipodi-0.dtd"
   xmlns:inkscape="http://www.inkscape.org/namespaces/inkscape"
   width="64"
   height="64"
   id="svg2985"
   version="1.1"
   inkscape:version="0.48.4 r9939"
   inkscape:export-filename="/home/jobe/Development/SailfishOS/ownkeepass/common/images/wallicons/icon-l-generator.png"
   inkscape:export-xdpi="180"
   inkscape:export-ydpi="180"
   sodipodi:docname="icon-l-generator.svg"
   style="enable-background:new">
  <defs
     id="defs2987" />
  <sodipodi:namedview
     id="base"
     pagecolor="#787878"
     bordercolor="#666666"
     borderopacity="1.0"
     inkscape:pageopacity="0"
     inkscape:pageshadow="2"
     inkscape:zoom="12.521303"
     inkscape:cx="34.236055"
     inkscape:cy="31.990574"
     inkscape:current-layer="layer3"
     showgrid="true"
     inkscape:grid-bbox="true"
     inkscape:document-units="px"
     inkscape:snap-grids="false"
     inkscape:showpageshadow="true"
     showborder="true"
     borderlayer="true"
     inkscape:snap-smooth-nodes="false"
     inkscape:object-nodes="true"
     inkscape:snap-bbox="true"
     inkscape:bbox-nodes="true"
     inkscape:snap-global="true"
     inkscape:snap-nodes="true"
     inkscape:object-paths="false"
     inkscape:window-width="1440"
     inkscape:window-height="876"
     inkscape:window-x="0"
     inkscape:window-y="24"
     inkscape:window-maximized="1"
     inkscape:snap-to-guides="false"
     inkscape:snap-page="false"
     objecttolerance="5" />
  <metadata
     id="metadata2990">
    <rdf:RDF>
      <cc:Work
         rdf:about="">
        <dc:format>image/svg+xml</dc:format>
        <dc:type
           rdf:resource="http://purl.org/dc/dcmitype/StillImage" />
        <dc:title></dc:title>
      </cc:Work>
    </rdf:RDF>
  </metadata>
  <g
     inkscape:groupmode="layer"
     id="layer3"
     inkscape:label="Background"
     style="display:inline"
     transform="translate(0,-32)">
    <rect
       style="fill:#000000;fill-opacity:1"
       id="rect3884"
       width="64.1642"
       height="64.3284"
       x="-0.16420364"
       y="32" />
  </g>
  <g
     inkscape:groupmode="layer"
     id="layer2"
     inkscape:label="Durchpausen"
     style="display:none">
    <image
       style="opacity:0.4979424;display:inline;enable-background:new"
       y="-0.26747352"
       x="3.1176465"
       id="image5782"
       xlink:href="file:///home/jobe/Downloads/canstockphoto11943362_comp.jpg"
       height="108.289"
       width="111.59744" />
  </g>
  <g
     inkscape:groupmode="layer"
     id="layer4"
     inkscape:label="Outline"
     style="display:none">
    <path
       sodipodi:type="arc"
       style="opacity:0.20987657;fill:none;stroke:#c2c2c2;stroke-width:3.29872513;stroke-miterlimit:4;stroke-opacity:1;stroke-dasharray:none;display:inline;enable-background:new"
       id="path3322-4"
       sodipodi:cx="33.377331"
       sodipodi:cy="33.331421"
       sodipodi:rx="14.370158"
       sodipodi:ry="13.956958"
       d="m 47.747489,33.331421 a 14.370158,13.956958 0 1 1 -28.740316,0 14.370158,13.956958 0 1 1 28.740316,0 z"
       transform="matrix(1.1810128,0,0,1.2126874,-7.183761,-8.282861)" />
  </g>
  <g
     id="layer1"
     inkscape:label="Foreground"
     inkscape:groupmode="layer"
     transform="translate(0,16)"
     style="display:inline">
    <rect
       style="fill:#ffffff;display:none"
       id="rect3772"
       width="64.367813"
       height="46.305416"
       x="15.763547"
       y="-7.336617" />
    <path
       sodipodi:type="arc"
       style="fill:#ffffff;fill-opacity:0.10196078;stroke:none;display:inline;enable-background:new"
       id="path6552"
       sodipodi:cx="53.853657"
       sodipodi:cy="17.400288"
       sodipodi:rx="6.6571016"
       sodipodi:ry="9.962697"
       d="m 60.510758,17.400288 a 6.6571016,9.962697 0 1 1 -13.314203,0 6.6571016,9.962697 0 1 1 13.314203,0 z"
       transform="matrix(3.4620691,0,0,2.327189,-154.47093,-24.264203)" />
    <path
       sodipodi:type="arc"
       style="fill:none;stroke:#ffffff;stroke-width:0.90959505;stroke-miterlimit:4;stroke-opacity:0.39607842999999998;stroke-dasharray:none"
       id="path3322"
       sodipodi:cx="33.377331"
       sodipodi:cy="33.331421"
       sodipodi:rx="14.370158"
       sodipodi:ry="13.956958"
       d="m 47.747489,33.331421 a 14.370158,13.956958 0 1 1 -28.740316,0 14.370158,13.956958 0 1 1 28.740316,0 z"
       transform="matrix(0.63906256,0,0,0.68086804,10.964475,-6.4834655)" />
    <path
       style="fill:none;stroke:#ffffff;stroke-width:0.6;stroke-linecap:butt;stroke-linejoin:round;stroke-miterlimit:4;stroke-opacity:1;stroke-dasharray:none"
       d="m 30.23843,3.2826093 -0.08299,-3.40052905 4.398438,0 0,3.40052905 3.651533,1.1335104 1.991746,-2.8337749 3.153596,2.1860547 -1.908756,2.5908794 2.157725,2.6718441 3.172762,-1.4822434 1.519304,3.3257414 -3.115268,1.476066 0.663916,3.805354 3.517468,0.573015 -0.580927,3.992158 -3.517467,-0.597889 -1.659788,3.481494 2.700321,2.404075 -2.521595,2.765246 -2.668408,-2.416512 -3.070607,1.943159 1.321413,3.126501 -3.760018,1.307878 -1.212929,-3.219904 -3.983491,0 -0.823563,3.269735 -3.87492,-1.052546 1.04695,-3.350698 -3.153598,-1.700264 -2.330119,2.279455 -2.649244,-2.653147 2.489683,-2.298153 -1.825767,-3.157634 -3.37707,0.765994 -0.68941,-3.86762 3.3834,-0.697552 0.383034,-3.574896 -3.313159,-1.127332 1.564051,-3.9485871 3.351488,1.2830019 2.18322,-2.7589857 -2.164055,-2.8898653 3.491885,-2.3728581 2.157725,2.8337748 z"
       id="path4112"
       inkscape:connector-curvature="0"
       sodipodi:nodetypes="ccccccccccccccccccccccccccccccccccccccccccccc" />
  </g>
</svg>
