<?xml version="1.0" encoding="UTF-8" standalone="no"?>
<!-- Created with Inkscape (http://www.inkscape.org/) -->

<svg
   xmlns:dc="http://purl.org/dc/elements/1.1/"
   xmlns:cc="http://creativecommons.org/ns#"
   xmlns:rdf="http://www.w3.org/1999/02/22-rdf-syntax-ns#"
   xmlns:svg="http://www.w3.org/2000/svg"
   xmlns="http://www.w3.org/2000/svg"
   xmlns:sodipodi="http://sodipodi.sourceforge.net/DTD/sodipodi-0.dtd"
   xmlns:inkscape="http://www.inkscape.org/namespaces/inkscape"
   width="64"
   height="64"
   id="svg2985"
   version="1.1"
   inkscape:version="0.48.4 r9939"
   inkscape:export-filename="/home/jobe/Development/SailfishOS/ownkeepass/common/images/wallicons/wall-key.png"
   inkscape:export-xdpi="765"
   inkscape:export-ydpi="765"
   sodipodi:docname="wall-key.svg"
   style="enable-background:new">
  <defs
     id="defs2987" />
  <sodipodi:namedview
     id="base"
     pagecolor="#787878"
     bordercolor="#666666"
     borderopacity="1.0"
     inkscape:pageopacity="0"
     inkscape:pageshadow="2"
     inkscape:zoom="14.203125"
     inkscape:cx="32"
     inkscape:cy="32"
     inkscape:current-layer="layer3"
     showgrid="true"
     inkscape:grid-bbox="true"
     inkscape:document-units="px"
     inkscape:snap-grids="false"
     inkscape:showpageshadow="true"
     showborder="true"
     borderlayer="true"
     inkscape:snap-smooth-nodes="false"
     inkscape:object-nodes="false"
     inkscape:snap-bbox="true"
     inkscape:bbox-nodes="true"
     inkscape:snap-global="false"
     inkscape:snap-nodes="true"
     inkscape:object-paths="false"
     inkscape:window-width="1920"
     inkscape:window-height="1056"
     inkscape:window-x="0"
     inkscape:window-y="24"
     inkscape:window-maximized="1"
     inkscape:snap-to-guides="false"
     inkscape:snap-page="false" />
  <metadata
     id="metadata2990">
    <rdf:RDF>
      <cc:Work
         rdf:about="">
        <dc:format>image/svg+xml</dc:format>
        <dc:type
           rdf:resource="http://purl.org/dc/dcmitype/StillImage" />
        <dc:title></dc:title>
      </cc:Work>
    </rdf:RDF>
  </metadata>
  <g
     inkscape:groupmode="layer"
     id="layer3"
     inkscape:label="Background"
     style="display:inline"
     transform="translate(0,-32)">
    <rect
       style="fill:#4995a9;fill-opacity:1"
       id="rect3884"
       width="64.1642"
       height="64.3284"
       x="-0.078544557"
       y="31.972422" />
  </g>
  <g
     id="layer1"
     inkscape:label="Layer 1"
     inkscape:groupmode="layer"
     transform="translate(0,16)"
     style="display:inline">
    <rect
       style="fill:#ffffff;display:none"
       id="rect3772"
       width="64.367813"
       height="46.305416"
       x="15.763547"
       y="-7.336617" />
    <path
       style="fill:#ffffff;fill-opacity:0.2;display:inline;enable-background:new"
       d="m 26.90625,27.40625 0,1.875 34.8125,0 -1.875,-1.875 z m 35.375,2.46875 c 0.228393,0.316156 0.303955,0.606655 0.25,0.90625 l -35.625,0 0,1.875 34.125,0 -1.4375,1.46875 -32.6875,0 0,1.875 9.8125,0 c 0.590552,-0.512133 1.532919,-1.438897 1.84375,-1.75 l 1.71875,1.75 3.3125,0 c 1.106248,-1.00951 0.594025,-0.528205 1.8125,-1.75 L 47.1875,36 50.5,36 c 1.318217,-1.281174 0.636782,-0.591384 1.84375,-1.8125 l 1.8125,1.8125 0.03125,0 3.53125,0 c 1.276514,-1.242167 3.139833,-3.100501 4.34375,-4.3125 0.581497,-0.609833 0.704836,-1.175919 0.21875,-1.8125 z"
       transform="translate(0,-16)"
       id="path4890-3-7"
       inkscape:connector-curvature="0"
       sodipodi:nodetypes="cccccccccccccccccccccccccc" />
    <path
       inkscape:connector-curvature="0"
       id="path4890"
       d="m 55.917145,21.749244 -3.601828,-3.60488 -3.479692,3.521628 -3.452151,-3.456215 -3.442572,3.456215 -3.423414,-3.456215 -4.490312,4.496884 -5.734426,0.0559 c -2.451112,4.330377 -7.10068,7.294205 -12.450736,7.294205 -7.9520415,0 -14.3881544,-6.392688 -14.3881544,-14.291076 0,-7.898389 6.4361129,-14.281562 14.3881544,-14.281562 5.294976,0 9.851145,2.899605 12.366917,7.136023 l 28.934369,0.06541 4.855522,4.878662 c 0.757966,0.752851 0.692108,1.393903 0.02754,2.090855 l -6.307748,6.250455 M 9.5543816,19.399114 c 2.1325984,0 3.8640624,-1.747136 3.8640624,-3.865346 0,-2.090854 -1.730267,-3.828476 -3.8640624,-3.828476 -2.1337957,0 -3.8544839,1.737622 -3.8544839,3.828476 0,2.11821 1.7218853,3.865346 3.8544839,3.865346 z"
       style="fill:none;stroke:#ffffff;stroke-width:0.5;stroke-miterlimit:4;stroke-opacity:1;stroke-dasharray:none"
       sodipodi:nodetypes="ccccccccssscccccsssss" />
    <text
       xml:space="preserve"
       style="font-size:5px;font-style:normal;font-variant:normal;font-weight:500;font-stretch:normal;line-height:125%;letter-spacing:0px;word-spacing:0px;fill:#ffffff;fill-opacity:0.2;stroke:none;display:inline;enable-background:new;font-family:Ubuntu;-inkscape-font-specification:Ubuntu Medium"
       x="-24.658445"
       y="17.685328"
       id="text5019"
       sodipodi:linespacing="125%"
       transform="matrix(0,-1,1,0,0,0)"><tspan
         sodipodi:role="line"
         id="tspan5021"
         x="-24.658445"
         y="17.685328"
         style="font-size:4.69999980999999956px;font-weight:500;-inkscape-font-specification:Ubuntu Medium;fill:#ffffff;fill-opacity:0.2">    own</tspan><tspan
         sodipodi:role="line"
         x="-24.658445"
         y="23.560328"
         id="tspan5065"
         style="font-size:4.69999980999999956px;font-weight:500;-inkscape-font-specification:Ubuntu Medium;fill:#ffffff;fill-opacity:0.2">Keepass</tspan></text>
  </g>
</svg>
