<?xml version="1.0" encoding="UTF-8" standalone="no"?>
<!-- Created with Inkscape (http://www.inkscape.org/) -->

<svg
   xmlns:dc="http://purl.org/dc/elements/1.1/"
   xmlns:cc="http://creativecommons.org/ns#"
   xmlns:rdf="http://www.w3.org/1999/02/22-rdf-syntax-ns#"
   xmlns:svg="http://www.w3.org/2000/svg"
   xmlns="http://www.w3.org/2000/svg"
   xmlns:sodipodi="http://sodipodi.sourceforge.net/DTD/sodipodi-0.dtd"
   xmlns:inkscape="http://www.inkscape.org/namespaces/inkscape"
   width="64"
   height="64"
   id="svg2985"
   version="1.1"
   inkscape:version="0.48.4 r9939"
   inkscape:export-filename="/home/jobe/Development/Sailfish-devel/ownKeepass/qml/common/images/covericons/locker.png"
   inkscape:export-xdpi="90"
   inkscape:export-ydpi="90"
   sodipodi:docname="_1.svg"
   style="enable-background:new">
  <defs
     id="defs2987" />
  <sodipodi:namedview
     id="base"
     pagecolor="#787878"
     bordercolor="#666666"
     borderopacity="1.0"
     inkscape:pageopacity="0"
     inkscape:pageshadow="2"
     inkscape:zoom="10.890625"
     inkscape:cx="32"
     inkscape:cy="32"
     inkscape:current-layer="layer1"
     showgrid="true"
     inkscape:grid-bbox="true"
     inkscape:document-units="px"
     inkscape:snap-grids="false"
     inkscape:showpageshadow="true"
     showborder="true"
     borderlayer="true"
     inkscape:snap-smooth-nodes="false"
     inkscape:object-nodes="true"
     inkscape:snap-bbox="true"
     inkscape:bbox-nodes="true"
     inkscape:snap-global="true"
     inkscape:snap-nodes="true"
     inkscape:object-paths="false"
     inkscape:window-width="1440"
     inkscape:window-height="876"
     inkscape:window-x="0"
     inkscape:window-y="24"
     inkscape:window-maximized="1"
     inkscape:snap-to-guides="false"
     inkscape:snap-page="false" />
  <metadata
     id="metadata2990">
    <rdf:RDF>
      <cc:Work
         rdf:about="">
        <dc:format>image/svg+xml</dc:format>
        <dc:type
           rdf:resource="http://purl.org/dc/dcmitype/StillImage" />
        <dc:title></dc:title>
      </cc:Work>
    </rdf:RDF>
  </metadata>
  <g
     inkscape:groupmode="layer"
     id="layer3"
     inkscape:label="Background"
     style="display:inline"
     transform="translate(0,-32)">
    <rect
       style="fill:#4995a9;fill-opacity:1"
       id="rect3884"
       width="64.1642"
       height="64.3284"
       x="-0.16420364"
       y="32" />
  </g>
  <g
     id="layer1"
     inkscape:label="Layer 1"
     inkscape:groupmode="layer"
     transform="translate(0,16)"
     style="display:inline">
    <g
       id="g4619"
       transform="matrix(0.91732435,-0.39814072,0.39814072,0.91732435,-4.565846,11.116287)">
      <path
         id="path3848-4-3"
         d="M 51.875,4.0000003 C 46.205188,4.0131003 41.57337,9.6305613 40.78125,17 l -27.125,0.0625 0,-0.03125 -12.96875,0 0,0.0625 -2.0625,0 0.0625,4.96875 2.03125,0 0.0625,0 13,0 0,-0.03125 27.0625,-0.0625 C 41.811328,29.300115 46.538867,34.888053 52.1875,34.875 58.471103,34.86048 63.493405,27.911747 63.40625,19.375 63.3191,10.838221 58.158603,3.9854803 51.875,4.0000003 z m 0.15625,5 C 56.123277,8.9905003 59.504168,13.59888 59.5625,19.3125 59.62083,25.026122 56.342026,29.678044 52.25,29.6875 48.157973,29.697 44.808331,25.057374 44.75,19.34375 44.69167,13.630131 47.939223,9.0094563 52.03125,9.0000003 z M 9.3437501,10.25 5,10.28125 l 0.03125,3.78125 -4.375,0 0.03125,2.46875 12.96875,0 -0.03125,-2.5 -4.2499999,0 L 9.3437501,10.25 z M 0.78125,22.53125 0.8125,25.125 l 0.03125,3.6875 4.34375,0 -0.0625,-3.71875 4.3750001,0 0.03125,3.71875 L 13.84375,28.78125 13.8125,25 l -0.03125,-2.46875 -13,0 z"
         style="fill:none;stroke:#00384f;stroke-opacity:0.56470588;display:inline;enable-background:new"
         inkscape:connector-curvature="0" />
      <path
         id="path3848-4"
         transform="translate(0,-16)"
         d="m 51.875,20 c -5.669812,0.0131 -10.30163,5.630561 -11.09375,13 l -27.125,0.0625 0,-0.03125 -12.96875,0 0,0.0625 -2.0625,0 0.0625,4.96875 2.03125,0 0.0625,0 13,0 0,-0.03125 27.0625,-0.0625 C 41.811328,45.300115 46.538867,50.888053 52.1875,50.875 58.471103,50.86048 63.493405,43.911747 63.40625,35.375 63.319099,26.838221 58.158603,19.98548 51.875,20 z m 0.15625,5 c 4.092027,-0.0095 7.472918,4.59888 7.53125,10.3125 0.05833,5.713622 -3.220474,10.365544 -7.3125,10.375 C 48.157973,45.697 44.808331,41.057374 44.75,35.34375 44.69167,29.630131 47.939223,25.009456 52.03125,25 z M 9.34375,26.25 5,26.28125 l 0.03125,3.78125 -4.375,0 0.03125,2.46875 12.96875,0 -0.03125,-2.5 -4.25,0 L 9.34375,26.25 z m -8.5625,12.28125 0.03125,2.59375 0.03125,3.6875 4.34375,0 -0.0625,-3.71875 4.375,0 0.03125,3.71875 4.3125,-0.03125 L 13.8125,41 l -0.03125,-2.46875 -13,0 z"
         style="fill:#ffffff;fill-opacity:1;stroke:none;display:inline;enable-background:new"
         inkscape:connector-curvature="0" />
    </g>
    <rect
       style="fill:#ffffff;display:none"
       id="rect3772"
       width="64.367813"
       height="46.305416"
       x="15.763547"
       y="-7.336617" />
  </g>
</svg>
