<?xml version="1.0" encoding="UTF-8" standalone="no"?>
<!-- Created with Inkscape (http://www.inkscape.org/) -->

<svg
   xmlns:dc="http://purl.org/dc/elements/1.1/"
   xmlns:cc="http://creativecommons.org/ns#"
   xmlns:rdf="http://www.w3.org/1999/02/22-rdf-syntax-ns#"
   xmlns:svg="http://www.w3.org/2000/svg"
   xmlns="http://www.w3.org/2000/svg"
   xmlns:sodipodi="http://sodipodi.sourceforge.net/DTD/sodipodi-0.dtd"
   xmlns:inkscape="http://www.inkscape.org/namespaces/inkscape"
   width="64"
   height="64"
   id="svg2985"
   version="1.1"
   inkscape:version="0.48.4 r9939"
   inkscape:export-filename="/home/jobe/Development/SailfishOS-devel/ownKeepass/common/images/entryicons/_49.png"
   inkscape:export-xdpi="90"
   inkscape:export-ydpi="90"
   sodipodi:docname="_49.svg"
   style="enable-background:new">
  <defs
     id="defs2987" />
  <sodipodi:namedview
     id="base"
     pagecolor="#787878"
     bordercolor="#666666"
     borderopacity="1.0"
     inkscape:pageopacity="0"
     inkscape:pageshadow="2"
     inkscape:zoom="10.890625"
     inkscape:cx="32"
     inkscape:cy="32"
     inkscape:current-layer="layer1"
     showgrid="true"
     inkscape:grid-bbox="true"
     inkscape:document-units="px"
     inkscape:snap-grids="false"
     inkscape:showpageshadow="true"
     showborder="true"
     borderlayer="true"
     inkscape:snap-smooth-nodes="false"
     inkscape:object-nodes="false"
     inkscape:snap-bbox="true"
     inkscape:bbox-nodes="true"
     inkscape:snap-global="false"
     inkscape:snap-nodes="true"
     inkscape:object-paths="false"
     inkscape:window-width="1440"
     inkscape:window-height="876"
     inkscape:window-x="0"
     inkscape:window-y="24"
     inkscape:window-maximized="1"
     inkscape:snap-to-guides="false"
     inkscape:snap-page="false" />
  <metadata
     id="metadata2990">
    <rdf:RDF>
      <cc:Work
         rdf:about="">
        <dc:format>image/svg+xml</dc:format>
        <dc:type
           rdf:resource="http://purl.org/dc/dcmitype/StillImage" />
        <dc:title></dc:title>
      </cc:Work>
    </rdf:RDF>
  </metadata>
  <g
     inkscape:groupmode="layer"
     id="layer3"
     inkscape:label="Background"
     style="display:inline"
     transform="translate(0,-32)">
    <rect
       style="fill:#4995a9;fill-opacity:1"
       id="rect3884"
       width="64.1642"
       height="64.3284"
       x="-0.16420364"
       y="32" />
  </g>
  <g
     id="layer1"
     inkscape:label="Layer 1"
     inkscape:groupmode="layer"
     transform="translate(0,16)"
     style="display:inline">
    <rect
       style="fill:#ffffff;display:none"
       id="rect3772"
       width="64.367813"
       height="46.305416"
       x="15.763547"
       y="-7.336617" />
    <path
       style="fill:none;stroke:#00384f;stroke-opacity:0.56470588"
       d="m 9.8499688,-7.7254243 c -2.0994633,0.010399 -3.8750003,0.03125 -3.8750003,0.03125 -1.6939364,0 -3.71875,1.502371 -3.71875,3.375 l 0,40.2499993 c 0,0.234078 0.020288,0.467061 0.0625,0.6875 0.00445,0.02326 0.026355,0.03942 0.03125,0.0625 0.219732,1.59479 1.4762174,2.71875 3.34375,2.71875 l 43.1250005,0 c 2.413154,0 4.84781,-1.878755 5.4375,-4.21875 l 7.34375,-29.1874993 c 0.58969,-2.339995 -0.868096,-4.2187501 -3.28125,-4.2187501 l -5.375,0 0,-0.84374999 c 0.0087,-1.87260185 -1.812195,-3.49999991 -3.46875,-3.49999991 -7.962667,0 -22.165086,0.03505 -24.09375,0 -1.928663,-0.035053 -2.976325,-1.373391 -4.71875,-2.78125 -1.742425,-1.407859 -2.185115,-2.26056 -4.90625,-2.34375 -1.360567,-0.041595 -3.806787,-0.041649 -5.9062502,-0.03125 z"
       id="rect4635-4"
       inkscape:connector-curvature="0" />
    <g
       id="g4676"
       transform="translate(-0.73457672,1.4490674)">
      <path
         sodipodi:nodetypes="szzzcsssssss"
         inkscape:connector-curvature="0"
         id="rect4635"
         d="m 6.7548795,-9.2051649 c 0,0 7.0372835,-0.083186 9.7584185,0 2.721135,0.083186 3.16161,0.9409229 4.904035,2.348782 1.742425,1.4078591 2.795051,2.7582019 4.723714,2.7932553 1.928664,0.035053 16.134679,0 24.097346,0 1.656555,0 3.486222,1.5994152 3.477535,3.4720179 L 53.553474,34.427552 c -0.0087,1.872603 -2.160016,3.380196 -3.816572,3.380196 l -43.6247772,0 c -1.6565562,0 -3.0819956,-1.507568 -3.0819956,-3.380196 l 0,-40.2525211 c 0,-1.8726285 2.0308143,-3.3801958 3.7247503,-3.3801958 z"
         style="fill:#b9b9b9;fill-opacity:1;stroke:none" />
      <rect
         transform="matrix(1,0,-0.24436488,0.96968335,0,0)"
         ry="4.3558731"
         y="0.26040468"
         x="11.671375"
         height="38.824081"
         width="51.832733"
         id="rect4625"
         style="fill:#ffffff;fill-opacity:1;stroke:none" />
    </g>
  </g>
</svg>
